<?xml version="1.0" standalone="no"?>
<!DOCTYPE svg PUBLIC "-//W3C//DTD SVG 20010904//EN"
 "http://www.w3.org/TR/2001/REC-SVG-20010904/DTD/svg10.dtd">
<svg version="1.0" xmlns="http://www.w3.org/2000/svg"
 width="700.000000pt" height="700.000000pt" viewBox="0 0 700.000000 700.000000"
 preserveAspectRatio="xMidYMid meet">
<metadata>
Created by potrace 1.11, written by Peter Selinger 2001-2013
</metadata>
<g transform="translate(0.000000,700.000000) scale(0.100000,-0.100000)"
fill="#000000" stroke="none">
<path d="M422 6818 c0 -101 -1 -193 -1 -205 l-1 -23 -204 0 -203 0 0 -205 0
-205 204 0 203 0 1 -27 c1 -16 1 -108 2 -205 l0 -178 204 0 203 0 0 43 c1 23
0 115 0 205 l-1 162 206 0 c175 0 205 2 206 15 0 8 0 89 0 180 0 91 0 176 0
190 l-1 25 -205 0 -206 0 1 193 c1 105 1 198 1 205 -1 9 -49 12 -204 12 l-204
0 -1 -182z"/>
<path d="M2177 6962 c-13 -20 -177 -282 -364 -582 -371 -596 -387 -622 -485
-778 -37 -59 -77 -123 -88 -142 -11 -19 -28 -47 -38 -61 -9 -15 -30 -48 -47
-75 -16 -27 -98 -159 -182 -293 -84 -135 -153 -250 -153 -255 0 -6 23 -94 51
-196 27 -102 52 -192 54 -200 2 -8 15 -58 29 -110 14 -52 39 -144 56 -205 16
-60 58 -216 94 -345 35 -129 63 -236 62 -237 -1 -1 -149 72 -329 162 -218 110
-329 161 -332 152 -3 -6 -118 -349 -255 -762 l-250 -750 31 -80 c17 -44 37
-93 44 -110 7 -16 86 -214 174 -440 89 -225 165 -419 170 -430 5 -11 76 -189
157 -395 81 -206 187 -474 235 -595 l87 -220 2172 -1 2171 0 224 225 c123 124
283 287 355 361 73 74 365 371 649 658 284 288 519 529 523 535 7 11 12 2807
5 2807 -2 0 -165 -41 -363 -90 -197 -50 -368 -92 -379 -94 -11 -3 -65 -16
-119 -31 -55 -14 -109 -27 -120 -29 -40 -8 -951 -237 -982 -247 -20 -6 -36
-20 -42 -37 -6 -15 -42 -115 -80 -222 -39 -107 -73 -202 -76 -210 -7 -18 6
209 19 332 3 26 8 84 11 130 3 46 7 99 9 118 2 19 7 73 10 120 3 47 8 99 10
116 2 17 7 71 10 120 3 49 8 105 10 125 3 20 7 70 10 110 3 41 8 94 10 119 2
25 7 77 10 115 2 39 7 102 10 140 7 84 16 73 -140 170 -60 37 -132 83 -160
100 -27 18 -124 79 -215 135 -91 57 -194 122 -230 145 -98 63 -392 249 -413
260 -9 6 -117 73 -239 150 -121 77 -233 147 -247 155 -14 8 -30 19 -36 23 -5
4 -57 37 -115 73 -58 36 -121 76 -140 89 -19 12 -142 90 -272 171 -131 82
-286 179 -345 217 -60 37 -129 81 -155 97 l-48 30 -23 -38z"/>
<path d="M4134 6388 l1 -203 199 -3 c115 -1 202 1 205 7 3 5 6 96 6 203 l-1
193 -205 3 -205 2 0 -202z"/>
<path d="M6590 6385 l0 -205 205 0 205 0 0 205 0 205 -205 0 -205 0 0 -205z"/>
<path d="M5770 5975 l0 -205 -204 0 -203 0 1 -202 1 -203 180 -2 c99 0 190 -2
202 -2 22 -1 23 -2 25 -203 l3 -203 203 -1 202 -1 1 156 c0 86 0 177 -1 204
-1 43 1 47 22 48 13 1 105 1 206 1 l182 0 0 204 0 204 -205 0 -206 0 1 148 c1
81 1 173 0 205 l0 57 -205 0 -205 0 0 -205z"/>
<path d="M28 5362 c-13 -3 -15 -31 -14 -205 l1 -202 203 -1 c191 -1 202 0 203
17 0 11 1 89 1 174 0 85 -1 170 -1 188 l-1 32 -188 0 c-104 0 -195 -1 -204 -3z"/>
</g>
</svg>
